GSerif01-AuthorTextRegular05.ufo
<glyph name="three" format="1">
  <advance width="631"/>
  <unicode hex="0033"/>
  <outline>
    <contour>
      <point x="347" y="379" type="line"/>
      <point x="484" y="379"/>
      <point x="576" y="318"/>
      <point x="576" y="205" type="curve" smooth="yes"/>
      <point x="576" y="62"/>
      <point x="459" y="-10"/>
      <point x="319" y="-10" type="curve" smooth="yes"/>
      <point x="174" y="-10"/>
      <point x="66" y="61"/>
      <point x="49" y="205" type="curve"/>
      <point x="147" y="205" type="line"/>
      <point x="160" y="86"/>
      <point x="224" y="37"/>
      <point x="319" y="37" type="curve" smooth="yes"/>
      <point x="409" y="37"/>
      <point x="481" y="85"/>
      <point x="481" y="206" type="curve" smooth="yes"/>
      <point x="481" y="316"/>
      <point x="417" y="348"/>
      <point x="316" y="348" type="curve" smooth="yes"/>
      <point x="220" y="348" type="line"/>
      <point x="220" y="392" type="line"/>
      <point x="305" y="392" type="line" smooth="yes"/>
      <point x="399" y="392"/>
      <point x="450" y="446"/>
      <point x="450" y="537" type="curve" smooth="yes"/>
      <point x="450" y="626"/>
      <point x="407" y="673"/>
      <point x="327" y="673" type="curve" smooth="yes"/>
      <point x="238" y="673"/>
      <point x="190" y="614"/>
      <point x="179" y="513" type="curve"/>
      <point x="83" y="513" type="line"/>
      <point x="99" y="640"/>
      <point x="193" y="720"/>
      <point x="327" y="720" type="curve" smooth="yes"/>
      <point x="460" y="720"/>
      <point x="540" y="648"/>
      <point x="540" y="538" type="curve" smooth="yes"/>
      <point x="540" y="435"/>
      <point x="456" y="371"/>
      <point x="325" y="371" type="curve"/>
    </contour>
  </outline>
</glyph>
<glyph name="A" format="1">
  <advance width="685"/>
  <unicode hex="0041"/>
  <outline>
    <contour>
      <point x="68" y="0" type="line"/>
      <point x="115" y="0" type="line"/>
      <point x="345" y="710" type="line"/>
      <point x="298" y="710" type="line"/>
    </contour>
    <contour>
      <point x="529" y="0" type="line"/>
      <point x="621" y="0" type="line"/>
      <point x="387" y="710" type="line"/>
      <point x="320" y="710" type="line"/>
      <point x="313" y="667" type="line"/>
    </contour>
    <contour>
      <point x="191" y="290" type="line"/>
      <point x="182" y="247" type="line"/>
      <point x="464" y="247" type="line"/>
      <point x="463" y="290" type="line"/>
    </contour>
    <contour>
      <point x="15" y="0" type="line"/>
      <point x="229" y="0" type="line"/>
      <point x="229" y="34" type="line"/>
      <point x="207" y="34" type="line" smooth="yes"/>
      <point x="159" y="34"/>
      <point x="134" y="49"/>
      <point x="134" y="57" type="curve"/>
      <point x="98" y="92" type="line"/>
      <point x="86" y="54"/>
      <point x="58" y="34"/>
      <point x="25" y="34" type="curve"/>
      <point x="15" y="34" type="line"/>
    </contour>
    <contour>
      <point x="670" y="0" type="line"/>
      <point x="670" y="34" type="line"/>
      <point x="663" y="34" type="line"/>
      <point x="632" y="34"/>
      <point x="609" y="36"/>
      <point x="599" y="68" type="curve"/>
      <point x="514" y="45" type="line"/>
      <point x="514" y="38"/>
      <point x="472" y="34"/>
      <point x="435" y="34" type="curve" smooth="yes"/>
      <point x="420" y="34" type="line"/>
      <point x="420" y="0" type="line"/>
    </contour>
  </outline>
</glyph>
<glyph name="D" format="1">
  <advance width="745"/>
  <unicode hex="0044"/>
  <outline>
    <contour>
      <point x="141" y="0" type="line"/>
      <point x="235" y="0" type="line"/>
      <point x="235" y="710" type="line"/>
      <point x="141" y="710" type="line"/>
    </contour>
    <contour>
      <point x="690" y="357" type="curve" smooth="yes"/>
      <point x="690" y="574"/>
      <point x="557" y="710"/>
      <point x="333" y="710" type="curve" smooth="yes"/>
      <point x="50" y="710" type="line"/>
      <point x="50" y="676" type="line"/>
      <point x="59" y="676" type="line" smooth="yes"/>
      <point x="104" y="674"/>
      <point x="141" y="668"/>
      <point x="141" y="640" type="curve"/>
      <point x="194" y="666" type="line"/>
      <point x="333" y="666" type="line" smooth="yes"/>
      <point x="503" y="666"/>
      <point x="589" y="555"/>
      <point x="589" y="357" type="curve" smooth="yes"/>
      <point x="589" y="160"/>
      <point x="503" y="44"/>
      <point x="333" y="44" type="curve" smooth="yes"/>
      <point x="212" y="44" type="line"/>
      <point x="141" y="70" type="line"/>
      <point x="141" y="41"/>
      <point x="105" y="34"/>
      <point x="59" y="34" type="curve" smooth="yes"/>
      <point x="50" y="34" type="line"/>
      <point x="50" y="0" type="line"/>
      <point x="333" y="0" type="line" smooth="yes"/>
      <point x="557" y="0"/>
      <point x="690" y="141"/>
    </contour>
  </outline>
</glyph>
<glyph name="F" format="1">
  <advance width="608"/>
  <unicode hex="0046"/>
  <outline>
    <contour>
      <point x="143" y="0" type="line"/>
      <point x="236" y="0" type="line"/>
      <point x="236" y="710" type="line"/>
      <point x="143" y="710" type="line"/>
    </contour>
    <contour>
      <point x="207" y="381" type="line"/>
      <point x="207" y="338" type="line"/>
      <point x="465" y="338" type="line"/>
      <point x="465" y="381" type="line"/>
    </contour>
    <contour>
      <point x="563" y="710" type="line"/>
      <point x="50" y="710" type="line"/>
      <point x="50" y="676" type="line"/>
      <point x="60" y="676" type="line" smooth="yes"/>
      <point x="105" y="676"/>
      <point x="143" y="669"/>
      <point x="143" y="640" type="curve"/>
      <point x="200" y="666" type="line"/>
      <point x="384" y="666" type="line" smooth="yes"/>
      <point x="470" y="666"/>
      <point x="504" y="655"/>
      <point x="510" y="616" type="curve" smooth="yes"/>
      <point x="523" y="525" type="line"/>
      <point x="563" y="525" type="line"/>
    </contour>
    <contour>
      <point x="50" y="0" type="line"/>
      <point x="341" y="0" type="line"/>
      <point x="341" y="34" type="line"/>
      <point x="325" y="34" type="line" smooth="yes"/>
      <point x="285" y="34"/>
      <point x="236" y="37"/>
      <point x="236" y="75" type="curve"/>
      <point x="143" y="70" type="line"/>
      <point x="143" y="41"/>
      <point x="106" y="34"/>
      <point x="60" y="34" type="curve" smooth="yes"/>
      <point x="50" y="34" type="line"/>
    </contour>
  </outline>
</glyph>
<glyph name="R" format="1">
  <advance width="704"/>
  <unicode hex="0052"/>
  <outline>
    <contour>
      <point x="148" y="0" type="line"/>
      <point x="241" y="0" type="line"/>
      <point x="241" y="710" type="line"/>
      <point x="148" y="710" type="line"/>
    </contour>
    <contour>
      <point x="349" y="309" type="line" smooth="yes"/>
      <point x="509" y="309"/>
      <point x="612" y="388"/>
      <point x="612" y="509" type="curve" smooth="yes"/>
      <point x="612" y="629"/>
      <point x="515" y="710"/>
      <point x="354" y="710" type="curve" smooth="yes"/>
      <point x="56" y="710" type="line"/>
      <point x="56" y="676" type="line"/>
      <point x="66" y="676" type="line"/>
      <point x="111" y="676"/>
      <point x="148" y="669"/>
      <point x="148" y="640" type="curve"/>
      <point x="195" y="666" type="line"/>
      <point x="352" y="666" type="line" smooth="yes"/>
      <point x="464" y="666"/>
      <point x="520" y="605"/>
      <point x="520" y="509" type="curve" smooth="yes"/>
      <point x="520" y="411"/>
      <point x="469" y="351"/>
      <point x="348" y="351" type="curve" smooth="yes"/>
      <point x="197" y="351" type="line"/>
      <point x="197" y="309" type="line"/>
    </contour>
    <contour>
      <point x="369" y="322" type="line"/>
      <point x="536" y="0" type="line"/>
      <point x="637" y="0" type="line"/>
      <point x="630" y="22" type="line"/>
      <point x="457" y="337" type="line"/>
    </contour>
    <contour>
      <point x="687" y="0" type="line"/>
      <point x="687" y="34" type="line"/>
      <point x="679" y="34" type="line"/>
      <point x="641" y="34"/>
      <point x="622" y="38"/>
      <point x="603" y="72" type="curve"/>
      <point x="587" y="0" type="line"/>
    </contour>
    <contour>
      <point x="56" y="34" type="line"/>
      <point x="56" y="0" type="line"/>
      <point x="334" y="0" type="line"/>
      <point x="334" y="34" type="line"/>
      <point x="326" y="34" type="line" smooth="yes"/>
      <point x="291" y="34"/>
      <point x="241" y="37"/>
      <point x="241" y="44" type="curve"/>
      <point x="148" y="70" type="line"/>
      <point x="148" y="41"/>
      <point x="112" y="34"/>
      <point x="66" y="34" type="curve" smooth="yes"/>
    </contour>
  </outline>
</glyph>
<glyph name="a" format="1">
  <advance width="601"/>
  <unicode hex="0061"/>
  <outline>
    <contour>
      <point x="434" y="307" type="line"/>
      <point x="186" y="291"/>
      <point x="62" y="239"/>
      <point x="62" y="130" type="curve" smooth="yes"/>
      <point x="62" y="42"/>
      <point x="139" y="-11"/>
      <point x="236" y="-11" type="curve" smooth="yes"/>
      <point x="330" y="-11"/>
      <point x="401" y="36"/>
      <point x="432" y="112" type="curve"/>
      <point x="458" y="146"/>
      <point x="421" y="136"/>
      <point x="411" y="134" type="curve"/>
      <point x="386" y="76"/>
      <point x="331" y="34"/>
      <point x="259" y="34" type="curve" smooth="yes"/>
      <point x="194" y="34"/>
      <point x="156" y="70"/>
      <point x="156" y="130" type="curve" smooth="yes"/>
      <point x="156" y="210"/>
      <point x="238" y="256"/>
      <point x="433" y="267" type="curve"/>
    </contour>
    <contour>
      <point x="288" y="550" type="curve" smooth="yes"/>
      <point x="191" y="550"/>
      <point x="119" y="506"/>
      <point x="90" y="463" type="curve"/>
      <point x="90" y="379" type="line"/>
      <point x="178" y="379" type="line"/>
      <point x="178" y="488" type="line"/>
      <point x="152" y="488"/>
      <point x="130" y="460"/>
      <point x="133" y="411" type="curve"/>
      <point x="160" y="464"/>
      <point x="201" y="507"/>
      <point x="288" y="507" type="curve" smooth="yes"/>
      <point x="358" y="507"/>
      <point x="406" y="476"/>
      <point x="406" y="379" type="curve" smooth="yes"/>
      <point x="406" y="101" type="line"/>
      <point x="415" y="101" type="line"/>
      <point x="415" y="0" type="line"/>
      <point x="579" y="0" type="line"/>
      <point x="579" y="32" type="line"/>
      <point x="575" y="32" type="line"/>
      <point x="528" y="32"/>
      <point x="493" y="39"/>
      <point x="493" y="68" type="curve" smooth="yes"/>
      <point x="493" y="384" type="line" smooth="yes"/>
      <point x="493" y="511"/>
      <point x="389" y="550"/>
    </contour>
  </outline>
</glyph>
<glyph name="b" format="1">
  <advance width="641"/>
  <unicode hex="0062"/>
  <outline>
    <contour>
      <point x="494" y="273" type="curve" smooth="yes"/>
      <point x="494" y="410"/>
      <point x="449" y="500"/>
      <point x="357" y="500" type="curve" smooth="yes"/>
      <point x="275" y="500"/>
      <point x="215" y="444"/>
      <point x="170" y="346" type="curve"/>
      <point x="137" y="363" type="line"/>
      <point x="206" y="488"/>
      <point x="263" y="550"/>
      <point x="361" y="550" type="curve" smooth="yes"/>
      <point x="502" y="550"/>
      <point x="589" y="438"/>
      <point x="589" y="273" type="curve" smooth="yes"/>
      <point x="589" y="105"/>
      <point x="499" y="-11"/>
      <point x="355" y="-11" type="curve" smooth="yes"/>
      <point x="257" y="-11"/>
      <point x="198" y="42"/>
      <point x="135" y="167" type="curve"/>
      <point x="169" y="181" type="line"/>
      <point x="215" y="85"/>
      <point x="274" y="39"/>
      <point x="352" y="39" type="curve" smooth="yes"/>
      <point x="448" y="39"/>
      <point x="494" y="131"/>
    </contour>
    <contour>
      <point x="104" y="668" type="line" smooth="yes"/>
      <point x="104" y="697"/>
      <point x="80" y="705"/>
      <point x="28" y="713" type="curve" smooth="yes"/>
      <point x="16" y="715" type="line"/>
      <point x="16" y="750" type="line"/>
      <point x="193" y="750" type="line"/>
      <point x="193" y="115" type="line"/>
      <point x="187" y="104" type="line"/>
      <point x="150" y="-6" type="line"/>
      <point x="104" y="-6" type="line"/>
    </contour>
  </outline>
</glyph>
<glyph name="d" format="1">
  <advance width="654"/>
  <unicode hex="0064"/>
  <outline>
    <contour>
      <point x="146" y="267" type="curve" smooth="yes"/>
      <point x="146" y="407"/>
      <point x="195" y="500"/>
      <point x="291" y="500" type="curve" smooth="yes"/>
      <point x="370" y="500"/>
      <point x="428" y="456"/>
      <point x="473" y="358" type="curve"/>
      <point x="506" y="372" type="line"/>
      <point x="445" y="498"/>
      <point x="387" y="550"/>
      <point x="289" y="550" type="curve" smooth="yes"/>
      <point x="144" y="550"/>
      <point x="52" y="434"/>
      <point x="52" y="267" type="curve" smooth="yes"/>
      <point x="52" y="100"/>
      <point x="143" y="-11"/>
      <point x="283" y="-11" type="curve" smooth="yes"/>
      <point x="383" y="-11"/>
      <point x="437" y="51"/>
      <point x="504" y="176" type="curve"/>
      <point x="472" y="194" type="line"/>
      <point x="427" y="95"/>
      <point x="369" y="39"/>
      <point x="288" y="39" type="curve" smooth="yes"/>
      <point x="194" y="39"/>
      <point x="146" y="129"/>
    </contour>
    <contour>
      <point x="448" y="668" type="curve" smooth="yes"/>
      <point x="448" y="113" type="line"/>
      <point x="455" y="116" type="line"/>
      <point x="455" y="0" type="line"/>
      <point x="625" y="0" type="line"/>
      <point x="625" y="32" type="line"/>
      <point x="621" y="32" type="line"/>
      <point x="573" y="32"/>
      <point x="537" y="39"/>
      <point x="537" y="68" type="curve"/>
      <point x="537" y="750" type="line"/>
      <point x="360" y="750" type="line"/>
      <point x="360" y="715" type="line"/>
      <point x="372" y="713" type="line" smooth="yes"/>
      <point x="424" y="704"/>
      <point x="448" y="697"/>
    </contour>
  </outline>
</glyph>
<glyph name="l" format="1">
  <advance width="402"/>
  <unicode hex="006C"/>
  <outline>
    <contour>
      <point x="170" y="0" type="line"/>
      <point x="259" y="0" type="line"/>
      <point x="259" y="750" type="line"/>
      <point x="45" y="750" type="line"/>
      <point x="45" y="712" type="line"/>
      <point x="82" y="710" type="line" smooth="yes"/>
      <point x="145" y="707"/>
      <point x="170" y="694"/>
      <point x="170" y="665" type="curve" smooth="yes"/>
    </contour>
    <contour>
      <point x="45" y="0" type="line"/>
      <point x="383" y="0" type="line"/>
      <point x="383" y="32" type="line"/>
      <point x="365" y="32" type="line"/>
      <point x="297" y="32"/>
      <point x="259" y="39"/>
      <point x="259" y="68" type="curve"/>
      <point x="170" y="68" type="line"/>
      <point x="170" y="39"/>
      <point x="131" y="32"/>
      <point x="63" y="32" type="curve"/>
      <point x="45" y="32" type="line"/>
    </contour>
  </outline>
</glyph>
<glyph name="n" format="1">
  <advance width="680"/>
  <unicode hex="006E"/>
  <outline>
    <contour>
      <point x="45" y="0" type="line"/>
      <point x="298" y="0" type="line"/>
      <point x="298" y="32" type="line"/>
      <point x="297" y="32" type="line"/>
      <point x="269" y="32"/>
      <point x="220" y="35"/>
      <point x="220" y="42" type="curve"/>
      <point x="131" y="68" type="line"/>
      <point x="131" y="39"/>
      <point x="95" y="32"/>
      <point x="47" y="32" type="curve"/>
      <point x="45" y="32" type="line"/>
    </contour>
    <contour>
      <point x="398" y="0" type="line"/>
      <point x="651" y="0" type="line"/>
      <point x="651" y="32" type="line"/>
      <point x="649" y="32" type="line"/>
      <point x="602" y="32"/>
      <point x="566" y="39"/>
      <point x="566" y="68" type="curve"/>
      <point x="477" y="42" type="line"/>
      <point x="477" y="35"/>
      <point x="428" y="32"/>
      <point x="400" y="32" type="curve"/>
      <point x="398" y="32" type="line"/>
    </contour>
    <contour>
      <point x="383" y="500" type="curve" smooth="yes"/>
      <point x="454" y="500"/>
      <point x="477" y="466"/>
      <point x="477" y="383" type="curve" smooth="yes"/>
      <point x="477" y="0" type="line"/>
      <point x="566" y="0" type="line"/>
      <point x="566" y="389" type="line" smooth="yes"/>
      <point x="566" y="500"/>
      <point x="497" y="550"/>
      <point x="398" y="550" type="curve" smooth="yes"/>
      <point x="297" y="550"/>
      <point x="237" y="495"/>
      <point x="175" y="390" type="curve"/>
      <point x="197" y="366" type="line"/>
      <point x="246" y="453"/>
      <point x="307" y="500"/>
    </contour>
    <contour>
      <point x="45" y="540" type="line"/>
      <point x="45" y="505" type="line"/>
      <point x="57" y="503" type="line" smooth="yes"/>
      <point x="108" y="495"/>
      <point x="131" y="487"/>
      <point x="131" y="458" type="curve" smooth="yes"/>
      <point x="131" y="0" type="line"/>
      <point x="220" y="0" type="line"/>
      <point x="220" y="425" type="line"/>
      <point x="212" y="435" type="line"/>
      <point x="212" y="540" type="line"/>
    </contour>
  </outline>
</glyph>
<glyph name="o" format="1">
  <advance width="614"/>
  <unicode hex="006F"/>
  <outline>
    <contour>
      <point x="306" y="-12" type="curve"/>
      <point x="461" y="-12"/>
      <point x="562" y="103"/>
      <point x="562" y="269" type="curve" smooth="yes"/>
      <point x="562" y="435"/>
      <point x="461" y="550"/>
      <point x="306" y="550" type="curve" smooth="yes"/>
      <point x="152" y="550"/>
      <point x="52" y="434"/>
      <point x="52" y="268" type="curve" smooth="yes"/>
      <point x="52" y="103"/>
      <point x="152" y="-12"/>
    </contour>
    <contour>
      <point x="306" y="36" type="curve"/>
      <point x="201" y="36"/>
      <point x="146" y="128"/>
      <point x="146" y="268" type="curve" smooth="yes"/>
      <point x="146" y="411"/>
      <point x="201" y="502"/>
      <point x="306" y="502" type="curve" smooth="yes"/>
      <point x="413" y="502"/>
      <point x="468" y="411"/>
      <point x="468" y="269" type="curve" smooth="yes"/>
      <point x="468" y="129"/>
      <point x="413" y="36"/>
    </contour>
  </outline>
</glyph>
<glyph name="r" format="1">
  <advance width="454"/>
  <unicode hex="0072"/>
  <outline>
    <contour>
      <point x="429" y="549" type="line"/>
      <point x="421" y="551"/>
      <point x="409" y="552"/>
      <point x="395" y="552" type="curve" smooth="yes"/>
      <point x="307" y="552"/>
      <point x="254" y="496"/>
      <point x="202" y="392" type="curve"/>
      <point x="212" y="350" type="line"/>
      <point x="255" y="438"/>
      <point x="300" y="474"/>
      <point x="364" y="474" type="curve" smooth="yes"/>
      <point x="385" y="474"/>
      <point x="401" y="472"/>
      <point x="429" y="466" type="curve"/>
    </contour>
    <contour>
      <point x="47" y="0" type="line"/>
      <point x="326" y="0" type="line"/>
      <point x="326" y="32" type="line"/>
      <point x="317" y="32" type="line" smooth="yes"/>
      <point x="269" y="32"/>
      <point x="223" y="35"/>
      <point x="223" y="63" type="curve"/>
      <point x="134" y="68" type="line"/>
      <point x="134" y="39"/>
      <point x="98" y="32"/>
      <point x="51" y="32" type="curve"/>
      <point x="47" y="32" type="line"/>
    </contour>
    <contour>
      <point x="47" y="540" type="line"/>
      <point x="47" y="505" type="line"/>
      <point x="60" y="503" type="line" smooth="yes"/>
      <point x="111" y="495"/>
      <point x="134" y="487"/>
      <point x="134" y="458" type="curve" smooth="yes"/>
      <point x="134" y="0" type="line"/>
      <point x="223" y="0" type="line"/>
      <point x="223" y="392" type="line"/>
      <point x="215" y="400" type="line"/>
      <point x="215" y="540" type="line"/>
    </contour>
  </outline>
</glyph>
<glyph name="s" format="1">
  <advance width="499"/>
  <unicode hex="0073"/>
  <outline>
    <contour>
      <point x="379" y="134" type="curve"/>
      <point x="379" y="69"/>
      <point x="339" y="33"/>
      <point x="257" y="33" type="curve" smooth="yes"/>
      <point x="189" y="33"/>
      <point x="132" y="49"/>
      <point x="103" y="107" type="curve"/>
      <point x="86" y="67"/>
      <point x="93" y="54"/>
      <point x="125" y="39" type="curve"/>
      <point x="125" y="161" type="line"/>
      <point x="39" y="161" type="line"/>
      <point x="39" y="73" type="line"/>
      <point x="82" y="20"/>
      <point x="158" y="-11"/>
      <point x="260" y="-11" type="curve" smooth="yes"/>
      <point x="388" y="-11"/>
      <point x="460" y="60"/>
      <point x="460" y="150" type="curve" smooth="yes"/>
      <point x="460" y="353"/>
      <point x="139" y="267"/>
      <point x="139" y="411" type="curve" smooth="yes"/>
      <point x="139" y="464"/>
      <point x="175" y="506"/>
      <point x="252" y="506" type="curve" smooth="yes"/>
      <point x="303" y="506"/>
      <point x="349" y="486"/>
      <point x="372" y="437" type="curve"/>
      <point x="378" y="469"/>
      <point x="369" y="496"/>
      <point x="344" y="493" type="curve"/>
      <point x="344" y="400" type="line"/>
      <point x="428" y="400" type="line"/>
      <point x="428" y="400"/>
      <point x="428" y="474"/>
      <point x="428" y="476" type="curve"/>
      <point x="400" y="518"/>
      <point x="338" y="550"/>
      <point x="251" y="550" type="curve" smooth="yes"/>
      <point x="133" y="550"/>
      <point x="61" y="485"/>
      <point x="61" y="393" type="curve" smooth="yes"/>
      <point x="61" y="183"/>
      <point x="379" y="272"/>
    </contour>
  </outline>
</glyph>
<glyph name="v" format="1">
  <advance width="620"/>
  <unicode hex="0076"/>
  <outline>
    <contour>
      <point x="247" y="540" type="line"/>
      <point x="16" y="540" type="line"/>
      <point x="16" y="508" type="line"/>
      <point x="18" y="508" type="line"/>
      <point x="57" y="508"/>
      <point x="76" y="500"/>
      <point x="87" y="471" type="curve"/>
      <point x="167" y="497" type="line"/>
      <point x="167" y="504"/>
      <point x="216" y="508"/>
      <point x="239" y="508" type="curve"/>
      <point x="247" y="508" type="line"/>
    </contour>
    <contour>
      <point x="325" y="0" type="line"/>
      <point x="339" y="36" type="line"/>
      <point x="151" y="540" type="line"/>
      <point x="61" y="540" type="line"/>
      <point x="268" y="0" type="line"/>
    </contour>
    <contour>
      <point x="352" y="0" type="line"/>
      <point x="558" y="540" type="line"/>
      <point x="496" y="540" type="line"/>
      <point x="305" y="30" type="line"/>
      <point x="314" y="0" type="line"/>
    </contour>
    <contour>
      <point x="398" y="540" type="line"/>
      <point x="398" y="508" type="line"/>
      <point x="406" y="508" type="line"/>
      <point x="442" y="508"/>
      <point x="476" y="503"/>
      <point x="476" y="489" type="curve"/>
      <point x="530" y="465" type="line"/>
      <point x="539" y="491"/>
      <point x="558" y="508"/>
      <point x="602" y="508" type="curve"/>
      <point x="604" y="508" type="line"/>
      <point x="604" y="540" type="line"/>
    </contour>
  </outline>
</glyph>
<glyph name="y" format="1">
  <advance width="627"/>
  <unicode hex="0079"/>
  <outline>
    <contour>
      <point x="335" y="14" type="line"/>
      <point x="350" y="52" type="line"/>
      <point x="155" y="528" type="line"/>
      <point x="65" y="526" type="line"/>
      <point x="297" y="-24" type="line"/>
    </contour>
    <contour>
      <point x="362" y="17" type="curve" smooth="yes"/>
      <point x="560" y="526" type="line"/>
      <point x="501" y="528" type="line"/>
      <point x="325" y="72" type="line"/>
      <point x="312" y="48" type="line" smooth="yes"/>
      <point x="243" y="-136"/>
      <point x="194" y="-147"/>
      <point x="58" y="-145" type="curve"/>
      <point x="58" y="-232" type="line"/>
      <point x="229" y="-233"/>
      <point x="294" y="-159"/>
    </contour>
    <contour>
      <point x="251" y="540" type="line"/>
      <point x="15" y="540" type="line"/>
      <point x="15" y="508" type="line"/>
      <point x="17" y="508" type="line"/>
      <point x="58" y="508"/>
      <point x="77" y="499"/>
      <point x="88" y="471" type="curve"/>
      <point x="167" y="497" type="line"/>
      <point x="167" y="504"/>
      <point x="219" y="508"/>
      <point x="242" y="508" type="curve"/>
      <point x="251" y="508" type="line"/>
    </contour>
    <contour>
      <point x="404" y="540" type="line"/>
      <point x="404" y="508" type="line"/>
      <point x="412" y="508" type="line"/>
      <point x="450" y="508"/>
      <point x="485" y="501"/>
      <point x="485" y="485" type="curve"/>
      <point x="535" y="462" type="line"/>
      <point x="546" y="489"/>
      <point x="564" y="508"/>
      <point x="609" y="508" type="curve"/>
      <point x="611" y="508" type="line"/>
      <point x="611" y="540" type="line"/>
    </contour>
  </outline>
</glyph>
<glyph name="C.alt" format="1">
  <advance width="719"/>
  <outline>
    <contour>
      <point x="55" y="355" type="curve" smooth="yes"/>
      <point x="55" y="138"/>
      <point x="196" y="-10"/>
      <point x="385" y="-10" type="curve" smooth="yes"/>
      <point x="534" y="-10"/>
      <point x="636" y="87"/>
      <point x="670" y="225" type="curve"/>
      <point x="624" y="239" type="line"/>
      <point x="596" y="124"/>
      <point x="514" y="37"/>
      <point x="391" y="37" type="curve" smooth="yes"/>
      <point x="250" y="37"/>
      <point x="154" y="162"/>
      <point x="154" y="355" type="curve" smooth="yes"/>
      <point x="154" y="549"/>
      <point x="252" y="677"/>
      <point x="401" y="677" type="curve" smooth="yes"/>
      <point x="497" y="677"/>
      <point x="563" y="627"/>
      <point x="591" y="566" type="curve"/>
      <point x="598" y="603"/>
      <point x="576" y="633"/>
      <point x="548" y="632" type="curve"/>
      <point x="548" y="513" type="line"/>
      <point x="645" y="513" type="line"/>
      <point x="645" y="608" type="line"/>
      <point x="617" y="660"/>
      <point x="528" y="720"/>
      <point x="401" y="720" type="curve" smooth="yes"/>
      <point x="202" y="720"/>
      <point x="55" y="569"/>
    </contour>
  </outline>
</glyph>
<glyph name="C.srf" format="1">
  <advance width="721"/>
  <outline>
    <contour>
      <point x="377" y="679" type="curve" smooth="yes"/>
      <point x="484" y="679"/>
      <point x="549" y="605"/>
      <point x="585" y="496" type="curve"/>
      <point x="642" y="496" type="line"/>
      <point x="642" y="710" type="line"/>
      <point x="593" y="710" type="line"/>
      <point x="580" y="560" type="line"/>
      <point x="581" y="559"/>
      <point x="600" y="561"/>
      <point x="605" y="558" type="curve"/>
      <point x="571" y="652"/>
      <point x="482" y="720"/>
      <point x="377" y="720" type="curve" smooth="yes"/>
      <point x="191" y="720"/>
      <point x="55" y="568"/>
      <point x="55" y="355" type="curve" smooth="yes"/>
      <point x="55" y="138"/>
      <point x="188" y="-10"/>
      <point x="381" y="-10" type="curve" smooth="yes"/>
      <point x="527" y="-10"/>
      <point x="621" y="88"/>
      <point x="655" y="230" type="curve"/>
      <point x="613" y="246" type="line"/>
      <point x="581" y="120"/>
      <point x="508" y="32"/>
      <point x="386" y="32" type="curve" smooth="yes"/>
      <point x="240" y="32"/>
      <point x="155" y="159"/>
      <point x="155" y="355" type="curve" smooth="yes"/>
      <point x="155" y="551"/>
      <point x="243" y="679"/>
    </contour>
  </outline>
</glyph>
<glyph name="J.alt" format="1">
  <advance width="627"/>
  <outline>
    <contour>
      <point x="246" y="32" type="curve"/>
      <point x="182" y="32"/>
      <point x="131" y="56"/>
      <point x="115" y="88" type="curve"/>
      <point x="82" y="134"/>
      <point x="91" y="63"/>
      <point x="140" y="49" type="curve"/>
      <point x="140" y="157" type="line"/>
      <point x="46" y="159" type="line"/>
      <point x="46" y="60" type="line"/>
      <point x="82" y="21"/>
      <point x="155" y="-10"/>
      <point x="246" y="-10" type="curve"/>
      <point x="375" y="-10"/>
      <point x="468" y="55"/>
      <point x="468" y="221" type="curve" smooth="yes"/>
      <point x="468" y="710" type="line"/>
      <point x="375" y="710" type="line"/>
      <point x="375" y="221" type="line" smooth="yes"/>
      <point x="375" y="71"/>
      <point x="326" y="32"/>
    </contour>
    <contour>
      <point x="237" y="710" type="line"/>
      <point x="237" y="676" type="line"/>
      <point x="290" y="676" type="line" smooth="yes"/>
      <point x="338" y="676"/>
      <point x="375" y="669"/>
      <point x="375" y="640" type="curve"/>
      <point x="468" y="640" type="line"/>
      <point x="468" y="669"/>
      <point x="505" y="676"/>
      <point x="550" y="676" type="curve" smooth="yes"/>
      <point x="583" y="676" type="line"/>
      <point x="583" y="710" type="line"/>
    </contour>
  </outline>
</glyph>
<glyph name="K.alt" format="1">
  <advance width="774"/>
  <outline>
    <contour>
      <point x="584" y="0" type="line"/>
      <point x="710" y="3" type="line"/>
      <point x="686" y="18" type="line"/>
      <point x="386" y="395" type="line"/>
      <point x="382" y="374" type="line"/>
      <point x="658" y="692" type="line"/>
      <point x="686" y="707" type="line"/>
      <point x="607" y="710" type="line"/>
      <point x="312" y="366" type="line"/>
      <point x="307" y="352" type="line"/>
    </contour>
    <contour>
      <point x="50" y="34" type="line"/>
      <point x="50" y="0" type="line"/>
      <point x="327" y="0" type="line"/>
      <point x="327" y="34" type="line"/>
      <point x="317" y="34" type="line" smooth="yes"/>
      <point x="281" y="34"/>
      <point x="236" y="37"/>
      <point x="236" y="44" type="curve"/>
      <point x="143" y="70" type="line"/>
      <point x="143" y="41"/>
      <point x="106" y="34"/>
      <point x="60" y="34" type="curve" smooth="yes"/>
    </contour>
    <contour>
      <point x="50" y="710" type="line"/>
      <point x="50" y="676" type="line"/>
      <point x="60" y="676" type="line" smooth="yes"/>
      <point x="105" y="676"/>
      <point x="143" y="669"/>
      <point x="143" y="640" type="curve"/>
      <point x="236" y="666" type="line"/>
      <point x="236" y="673"/>
      <point x="281" y="676"/>
      <point x="317" y="676" type="curve" smooth="yes"/>
      <point x="327" y="676" type="line"/>
      <point x="327" y="710" type="line"/>
    </contour>
    <contour>
      <point x="747" y="34" type="line"/>
      <point x="730" y="34" type="line" smooth="yes"/>
      <point x="673" y="34"/>
      <point x="664" y="40"/>
      <point x="640" y="70" type="curve"/>
      <point x="544" y="44" type="line"/>
      <point x="544" y="37"/>
      <point x="497" y="34"/>
      <point x="458" y="34" type="curve" smooth="yes"/>
      <point x="446" y="34" type="line"/>
      <point x="446" y="0" type="line"/>
      <point x="747" y="0" type="line"/>
    </contour>
    <contour>
      <point x="713" y="710" type="line"/>
      <point x="467" y="710" type="line"/>
      <point x="467" y="676" type="line"/>
      <point x="480" y="676" type="line" smooth="yes"/>
      <point x="515" y="676"/>
      <point x="564" y="674"/>
      <point x="564" y="666" type="curve"/>
      <point x="609" y="641" type="line"/>
      <point x="635" y="670"/>
      <point x="650" y="676"/>
      <point x="699" y="676" type="curve" smooth="yes"/>
      <point x="713" y="676" type="line"/>
    </contour>
    <contour>
      <point x="143" y="0" type="line"/>
      <point x="236" y="0" type="line"/>
      <point x="236" y="710" type="line"/>
      <point x="143" y="710" type="line"/>
    </contour>
    <contour>
      <point x="211" y="388" type="line"/>
      <point x="211" y="342" type="line"/>
      <point x="357" y="342" type="line"/>
      <point x="356" y="388" type="line"/>
    </contour>
  </outline>
</glyph>
<glyph name="Q.alt4" format="1">
  <advance width="750"/>
  <outline>
    <contour>
      <point x="375" y="-10" type="curve" smooth="yes"/>
      <point x="559" y="-10"/>
      <point x="695" y="135"/>
      <point x="695" y="355" type="curve" smooth="yes"/>
      <point x="695" y="574"/>
      <point x="559" y="720"/>
      <point x="375" y="720" type="curve" smooth="yes"/>
      <point x="189" y="720"/>
      <point x="55" y="575"/>
      <point x="55" y="355" type="curve" smooth="yes"/>
      <point x="55" y="136"/>
      <point x="189" y="-10"/>
    </contour>
    <contour>
      <point x="375" y="32" type="curve" smooth="yes"/>
      <point x="241" y="32"/>
      <point x="156" y="153"/>
      <point x="156" y="355" type="curve" smooth="yes"/>
      <point x="156" y="557"/>
      <point x="241" y="678"/>
      <point x="375" y="678" type="curve" smooth="yes"/>
      <point x="510" y="678"/>
      <point x="594" y="557"/>
      <point x="594" y="355" type="curve" smooth="yes"/>
      <point x="594" y="153"/>
      <point x="510" y="32"/>
    </contour>
    <contour>
      <point x="351" y="-7" type="line"/>
      <point x="343" y="-129"/>
      <point x="436" y="-183"/>
      <point x="557" y="-183" type="curve" smooth="yes"/>
      <point x="595" y="-183"/>
      <point x="640" y="-177"/>
      <point x="685" y="-168" type="curve"/>
      <point x="685" y="-78" type="line"/>
      <point x="636" y="-93"/>
      <point x="597" y="-107"/>
      <point x="534" y="-107" type="curve" smooth="yes"/>
      <point x="452" y="-107"/>
      <point x="393" y="-80"/>
      <point x="399" y="10" type="curve"/>
    </contour>
  </outline>
</glyph>
<glyph name="five.alt2" format="1">
  <advance width="615"/>
  <outline>
    <contour>
      <point x="97" y="710" type="line"/>
      <point x="515" y="710" type="line"/>
      <point x="515" y="540" type="line"/>
      <point x="468" y="540" type="line"/>
      <point x="468" y="638" type="line"/>
      <point x="468" y="638" type="line"/>
      <point x="133" y="638" type="line"/>
      <point x="147" y="659" type="line"/>
      <point x="147" y="408" type="line"/>
      <point x="97" y="408" type="line"/>
    </contour>
    <contour>
      <point x="258" y="426" type="line" smooth="yes"/>
      <point x="470" y="426"/>
      <point x="565" y="343"/>
      <point x="565" y="212" type="curve" smooth="yes"/>
      <point x="565" y="63"/>
      <point x="447" y="-10"/>
      <point x="309" y="-10" type="curve" smooth="yes"/>
      <point x="166" y="-10"/>
      <point x="60" y="61"/>
      <point x="43" y="205" type="curve"/>
      <point x="139" y="205" type="line"/>
      <point x="157" y="87"/>
      <point x="218" y="38"/>
      <point x="309" y="38" type="curve" smooth="yes"/>
      <point x="398" y="38"/>
      <point x="469" y="86"/>
      <point x="469" y="211" type="curve" smooth="yes"/>
      <point x="469" y="335"/>
      <point x="394" y="379"/>
      <point x="239" y="379" type="curve" smooth="yes"/>
      <point x="97" y="379" type="line"/>
      <point x="97" y="426" type="line"/>
    </contour>
  </outline>
</glyph>
<glyph name="five.alt3" format="1">
  <advance width="609"/>
  <outline>
    <contour>
      <point x="473" y="646" type="line"/>
      <point x="473" y="646" type="line"/>
      <point x="473" y="550" type="line"/>
      <point x="520" y="550" type="line"/>
      <point x="520" y="720" type="line"/>
      <point x="151" y="720" type="line"/>
      <point x="90" y="407" type="line"/>
      <point x="90" y="377" type="line"/>
      <point x="223" y="377" type="line" smooth="yes"/>
      <point x="383" y="377"/>
      <point x="466" y="329"/>
      <point x="466" y="209" type="curve" smooth="yes"/>
      <point x="466" y="92"/>
      <point x="400" y="38"/>
      <point x="311" y="38" type="curve" smooth="yes"/>
      <point x="216" y="38"/>
      <point x="156" y="86"/>
      <point x="141" y="205" type="curve"/>
      <point x="43" y="205" type="line"/>
      <point x="60" y="61"/>
      <point x="162" y="-10"/>
      <point x="311" y="-10" type="curve" smooth="yes"/>
      <point x="446" y="-10"/>
      <point x="561" y="67"/>
      <point x="561" y="209" type="curve" smooth="yes"/>
      <point x="561" y="342"/>
      <point x="455" y="424"/>
      <point x="255" y="424" type="curve" smooth="yes"/>
      <point x="116" y="424" type="line"/>
      <point x="139" y="403" type="line"/>
      <point x="191" y="669" type="line"/>
      <point x="169" y="646" type="line"/>
    </contour>
  </outline>
</glyph>
<glyph name="five.oldalt" format="1">
  <advance width="608"/>
  <outline>
    <contour>
      <point x="172" y="236" type="line"/>
      <point x="189" y="477" type="line"/>
      <point x="171" y="456" type="line"/>
      <point x="524" y="456" type="line"/>
      <point x="524" y="528" type="line"/>
      <point x="145" y="528" type="line"/>
      <point x="123" y="247" type="line"/>
      <point x="123" y="216" type="line"/>
      <point x="216" y="203" type="line" smooth="yes"/>
      <point x="372" y="182"/>
      <point x="464" y="135"/>
      <point x="464" y="14" type="curve" smooth="yes"/>
      <point x="464" y="-105"/>
      <point x="398" y="-155"/>
      <point x="315" y="-155" type="curve" smooth="yes"/>
      <point x="227" y="-155"/>
      <point x="165" y="-106"/>
      <point x="149" y="13" type="curve"/>
      <point x="53" y="13" type="line"/>
      <point x="70" y="-131"/>
      <point x="175" y="-202"/>
      <point x="315" y="-202" type="curve" smooth="yes"/>
      <point x="451" y="-202"/>
      <point x="559" y="-128"/>
      <point x="559" y="14" type="curve" smooth="yes"/>
      <point x="559" y="151"/>
      <point x="448" y="218"/>
      <point x="253" y="246" type="curve" smooth="yes"/>
      <point x="147" y="261" type="line"/>
    </contour>
  </outline>
</glyph>
<glyph name="g.alt" format="1">
  <advance width="621"/>
  <outline>
    <contour>
      <point x="146" y="278" type="curve" smooth="yes"/>
      <point x="146" y="411"/>
      <point x="195" y="500"/>
      <point x="291" y="500" type="curve" smooth="yes"/>
      <point x="370" y="500"/>
      <point x="429" y="455"/>
      <point x="474" y="359" type="curve"/>
      <point x="507" y="374" type="line"/>
      <point x="445" y="498"/>
      <point x="387" y="550"/>
      <point x="290" y="550" type="curve" smooth="yes"/>
      <point x="143" y="550"/>
      <point x="52" y="437"/>
      <point x="52" y="278" type="curve" smooth="yes"/>
      <point x="52" y="117"/>
      <point x="141" y="9"/>
      <point x="282" y="9" type="curve" smooth="yes"/>
      <point x="381" y="9"/>
      <point x="435" y="72"/>
      <point x="505" y="195" type="curve"/>
      <point x="473" y="213" type="line"/>
      <point x="427" y="117"/>
      <point x="369" y="59"/>
      <point x="288" y="59" type="curve" smooth="yes"/>
      <point x="194" y="59"/>
      <point x="146" y="144"/>
    </contour>
    <contour>
      <point x="288" y="-184" type="curve" smooth="yes"/>
      <point x="211" y="-184"/>
      <point x="150" y="-159"/>
      <point x="127" y="-98" type="curve"/>
      <point x="116" y="-130"/>
      <point x="130" y="-149"/>
      <point x="157" y="-148" type="curve"/>
      <point x="157" y="-70" type="line"/>
      <point x="69" y="-70" type="line"/>
      <point x="69" y="-149" type="line"/>
      <point x="104" y="-198"/>
      <point x="192" y="-233"/>
      <point x="288" y="-233" type="curve" smooth="yes"/>
      <point x="411" y="-233"/>
      <point x="537" y="-178"/>
      <point x="537" y="-18" type="curve" smooth="yes"/>
      <point x="537" y="546" type="line"/>
      <point x="492" y="546" type="line"/>
      <point x="454" y="435" type="line"/>
      <point x="448" y="417" type="line"/>
      <point x="448" y="-21" type="line" smooth="yes"/>
      <point x="448" y="-132"/>
      <point x="376" y="-184"/>
    </contour>
  </outline>
</glyph>
<glyph name="j.alt" format="1">
  <advance width="367"/>
  <outline>
    <contour>
      <point x="211" y="637" type="curve" smooth="yes"/>
      <point x="246" y="637"/>
      <point x="272" y="660"/>
      <point x="272" y="698" type="curve" smooth="yes"/>
      <point x="272" y="735"/>
      <point x="246" y="758"/>
      <point x="211" y="758" type="curve" smooth="yes"/>
      <point x="176" y="758"/>
      <point x="150" y="735"/>
      <point x="150" y="698" type="curve" smooth="yes"/>
      <point x="150" y="660"/>
      <point x="176" y="637"/>
    </contour>
    <contour>
      <point x="258" y="540" type="line"/>
      <point x="50" y="540" type="line"/>
      <point x="50" y="505" type="line"/>
      <point x="84" y="503" type="line" smooth="yes"/>
      <point x="145" y="499"/>
      <point x="169" y="487"/>
      <point x="169" y="458" type="curve" smooth="yes"/>
      <point x="169" y="-53" type="line" smooth="yes"/>
      <point x="169" y="-142"/>
      <point x="140" y="-206"/>
      <point x="75" y="-206" type="curve" smooth="yes"/>
      <point x="24" y="-206"/>
      <point x="-10" y="-187"/>
      <point x="-31" y="-141" type="curve"/>
      <point x="-43" y="-175"/>
      <point x="-21" y="-199"/>
      <point x="6" y="-198" type="curve"/>
      <point x="6" y="-102" type="line"/>
      <point x="-83" y="-102" type="line"/>
      <point x="-83" y="-175" type="line"/>
      <point x="-55" y="-214"/>
      <point x="-1" y="-241"/>
      <point x="75" y="-241" type="curve" smooth="yes"/>
      <point x="186" y="-241"/>
      <point x="258" y="-163"/>
      <point x="258" y="-53" type="curve" smooth="yes"/>
    </contour>
  </outline>
</glyph>
<glyph name="s.srf" format="1">
  <advance width="502"/>
  <outline>
    <contour>
      <point x="274" y="-10" type="curve"/>
      <point x="387" y="-10"/>
      <point x="461" y="52"/>
      <point x="461" y="149" type="curve" smooth="yes"/>
      <point x="461" y="259"/>
      <point x="375" y="287"/>
      <point x="288" y="309" type="curve" smooth="yes"/>
      <point x="207" y="329"/>
      <point x="135" y="341"/>
      <point x="135" y="418" type="curve" smooth="yes"/>
      <point x="135" y="471"/>
      <point x="168" y="510"/>
      <point x="239" y="510" type="curve" smooth="yes"/>
      <point x="303" y="510"/>
      <point x="356" y="468"/>
      <point x="380" y="399" type="curve"/>
      <point x="433" y="399" type="line"/>
      <point x="433" y="547" type="line"/>
      <point x="390" y="547" type="line"/>
      <point x="377" y="458" type="line"/>
      <point x="379" y="453"/>
      <point x="403" y="426"/>
      <point x="408" y="424" type="curve"/>
      <point x="392" y="493"/>
      <point x="324" y="555"/>
      <point x="234" y="555" type="curve" smooth="yes"/>
      <point x="132" y="555"/>
      <point x="59" y="494"/>
      <point x="59" y="403" type="curve" smooth="yes"/>
      <point x="59" y="290"/>
      <point x="149" y="259"/>
      <point x="236" y="238" type="curve" smooth="yes"/>
      <point x="314" y="218"/>
      <point x="381" y="202"/>
      <point x="381" y="132" type="curve" smooth="yes"/>
      <point x="381" y="69"/>
      <point x="336" y="35"/>
      <point x="268" y="35" type="curve" smooth="yes"/>
      <point x="180" y="35"/>
      <point x="120" y="86"/>
      <point x="95" y="175" type="curve"/>
      <point x="41" y="175" type="line"/>
      <point x="41" y="0" type="line"/>
      <point x="87" y="0" type="line"/>
      <point x="97" y="119" type="line"/>
      <point x="95" y="122"/>
      <point x="66" y="147"/>
      <point x="62" y="146" type="curve"/>
      <point x="96" y="33"/>
      <point x="190" y="-10"/>
    </contour>
  </outline>
</glyph>
